<svg height="57" viewBox="0 0 155 89" fill="none" xmlns="http://www.w3.org/2000/svg">
<path d="M24.612 65.84C20.636 65.84 17.164 65.112 14.196 63.656C11.284 62.2 9.016 60.156 7.392 57.524C5.768 54.892 4.956 51.784 4.956 48.2H15.54C15.54 50.944 16.324 53.1 17.892 54.668C19.516 56.18 21.784 56.936 24.696 56.936C27.608 56.936 29.848 56.152 31.416 54.584C32.984 53.016 33.768 50.888 33.768 48.2V43.412C33.768 40.668 32.984 38.54 31.416 37.028C29.848 35.46 27.608 34.676 24.696 34.676H17.808V25.184L31.332 12.668H7.728V3.68H42V13.172L24.696 29.048V25.688C30.744 25.688 35.532 27.284 39.06 30.476C42.588 33.668 44.352 37.98 44.352 43.412V48.2C44.352 51.784 43.54 54.892 41.916 57.524C40.292 60.156 37.996 62.2 35.028 63.656C32.06 65.112 28.588 65.84 24.612 65.84ZM51.5572 65V59.135L61.4455 41.0583L63.7122 38.395L52.4922 39.0183V31.7933H74.1955V36.6383L63.5139 56.2733L61.5589 58.4833L74.5355 57.86V65H51.5572ZM97.1732 65H77.0849V31.7933H96.7482L96.1815 38.48L86.4632 38.1967V44.6H94.1132V51.23L86.4632 50.6633V58.2L97.1732 57.9167V65ZM109.068 53.95V65H99.661V31.7933H103.401C104.308 31.7933 105.658 31.7556 107.453 31.68C109.247 31.5856 110.73 31.5383 111.901 31.5383C115.981 31.5383 119.022 32.4356 121.024 34.23C123.045 36.0244 124.056 38.7728 124.056 42.475C124.056 44.6661 123.574 46.6117 122.611 48.3117C121.667 50.0117 120.41 51.3622 118.843 52.3633C119.693 52.5711 120.42 53.0528 121.024 53.8083C121.648 54.5639 122.129 55.4611 122.469 56.5C122.809 57.52 123.102 58.5589 123.348 59.6167C123.612 60.6556 123.905 61.685 124.226 62.705C124.566 63.725 124.934 64.49 125.331 65H114.876C114.668 64.7356 114.508 63.9989 114.394 62.79C114.281 61.5622 114.12 60.0983 113.913 58.3983C113.724 56.6794 113.45 55.2439 113.091 54.0917C113.053 54.0917 113.006 54.0917 112.949 54.0917C112.59 54.0917 112.203 54.0917 111.788 54.0917C111.391 54.0728 111.042 54.0539 110.739 54.035C110.437 54.0161 110.116 53.9972 109.776 53.9783C109.455 53.9594 109.219 53.95 109.068 53.95ZM109.068 48.68H109.974C110.447 48.68 110.843 48.6611 111.164 48.6233C111.485 48.5856 111.835 48.5194 112.213 48.425C112.609 48.3117 112.93 48.1417 113.176 47.915C113.44 47.6883 113.686 47.3956 113.913 47.0367C114.139 46.6778 114.309 46.215 114.423 45.6483C114.536 45.0817 114.593 44.4206 114.593 43.665V41.4267C114.593 39.7833 114.158 38.6406 113.289 37.9983C112.439 37.3372 111.212 37.0067 109.606 37.0067H109.068V48.68ZM136.744 52.165C136.744 55.3006 136.98 57.4822 137.452 58.71C137.943 59.9378 138.793 60.5517 140.002 60.5517C140.89 60.5517 141.56 60.3344 142.014 59.9C142.467 59.4467 142.807 58.5306 143.034 57.1517C143.279 55.7539 143.402 53.6667 143.402 50.89V44.0617C143.402 41.3606 143.137 39.3489 142.609 38.0267C142.08 36.7044 141.211 36.0433 140.002 36.0433C138.793 36.0433 137.943 36.695 137.452 37.9983C136.98 39.2828 136.744 41.6344 136.744 45.0533V52.165ZM139.407 65.595C137.839 65.595 136.422 65.4533 135.157 65.17C133.91 64.8867 132.834 64.49 131.927 63.98C131.02 63.47 130.227 62.8183 129.547 62.025C128.886 61.2317 128.347 60.3817 127.932 59.475C127.535 58.5683 127.214 57.5106 126.969 56.3017C126.723 55.0739 126.553 53.8556 126.459 52.6467C126.364 51.4189 126.317 50.04 126.317 48.51C126.317 46.2433 126.43 44.2694 126.657 42.5883C126.902 40.9072 127.346 39.33 127.989 37.8567C128.631 36.3644 129.481 35.1556 130.539 34.23C131.615 33.3044 132.994 32.5772 134.675 32.0483C136.375 31.5194 138.377 31.255 140.682 31.255C142.269 31.255 143.695 31.4061 144.96 31.7083C146.226 31.9917 147.312 32.3883 148.219 32.8983C149.125 33.4083 149.909 34.0694 150.57 34.8817C151.25 35.6939 151.789 36.5628 152.185 37.4883C152.601 38.395 152.931 39.4622 153.177 40.69C153.422 41.9178 153.592 43.1361 153.687 44.345C153.781 45.5539 153.829 46.9233 153.829 48.4533C153.829 50.72 153.706 52.6939 153.46 54.375C153.215 56.0561 152.771 57.6333 152.129 59.1067C151.486 60.5611 150.627 61.7511 149.55 62.6767C148.474 63.5833 147.085 64.3011 145.385 64.83C143.704 65.34 141.711 65.595 139.407 65.595Z" fill="black"/>
<path d="M16.512 87.28C15.28 87.28 14.2067 87.0467 13.292 86.58C12.396 86.1133 11.696 85.4413 11.192 84.564C10.7067 83.668 10.464 82.6133 10.464 81.4V72.16C10.464 70.928 10.7067 69.8733 11.192 68.996C11.696 68.1187 12.396 67.4467 13.292 66.98C14.2067 66.5133 15.28 66.28 16.512 66.28C17.744 66.28 18.808 66.5227 19.704 67.008C20.6 67.4747 21.2907 68.1467 21.776 69.024C22.2613 69.9013 22.504 70.9467 22.504 72.16H19.984C19.984 71.0027 19.676 70.116 19.06 69.5C18.4627 68.8653 17.6133 68.548 16.512 68.548C15.4107 68.548 14.5427 68.856 13.908 69.472C13.292 70.088 12.984 70.9747 12.984 72.132V81.4C12.984 82.5573 13.292 83.4533 13.908 84.088C14.5427 84.704 15.4107 85.012 16.512 85.012C17.6133 85.012 18.4627 84.704 19.06 84.088C19.676 83.4533 19.984 82.5573 19.984 81.4H22.504C22.504 82.5947 22.2613 83.64 21.776 84.536C21.2907 85.4133 20.6 86.0947 19.704 86.58C18.808 87.0467 17.744 87.28 16.512 87.28ZM33.4691 87.28C32.2371 87.28 31.1731 87.0467 30.2771 86.58C29.3997 86.1133 28.7184 85.4413 28.2331 84.564C27.7664 83.668 27.5331 82.6133 27.5331 81.4V72.16C27.5331 70.928 27.7664 69.8733 28.2331 68.996C28.7184 68.1187 29.3997 67.4467 30.2771 66.98C31.1731 66.5133 32.2371 66.28 33.4691 66.28C34.7011 66.28 35.7557 66.5133 36.6331 66.98C37.5291 67.4467 38.2104 68.1187 38.6771 68.996C39.1624 69.8733 39.4051 70.9187 39.4051 72.132V81.4C39.4051 82.6133 39.1624 83.668 38.6771 84.564C38.2104 85.4413 37.5291 86.1133 36.6331 86.58C35.7557 87.0467 34.7011 87.28 33.4691 87.28ZM33.4691 85.012C34.5704 85.012 35.4104 84.704 35.9891 84.088C36.5864 83.4533 36.8851 82.5573 36.8851 81.4V72.16C36.8851 71.0027 36.5864 70.116 35.9891 69.5C35.4104 68.8653 34.5704 68.548 33.4691 68.548C32.3864 68.548 31.5464 68.8653 30.9491 69.5C30.3517 70.116 30.0531 71.0027 30.0531 72.16V81.4C30.0531 82.5573 30.3517 83.4533 30.9491 84.088C31.5464 84.704 32.3864 85.012 33.4691 85.012ZM44.6581 87V66.56H48.0181L54.2621 84.06C54.2248 83.5933 54.1781 83.024 54.1221 82.352C54.0848 81.6613 54.0475 80.9427 54.0101 80.196C53.9915 79.4307 53.9821 78.712 53.9821 78.04V66.56H56.4181V87H53.0581L46.8421 69.5C46.8795 69.948 46.9168 70.5173 46.9541 71.208C46.9915 71.88 47.0195 72.5987 47.0381 73.364C47.0755 74.1107 47.0941 74.8293 47.0941 75.52V87H44.6581ZM67.7192 87.28C66.4872 87.28 65.4139 87.0467 64.4992 86.58C63.6032 86.1133 62.9032 85.4413 62.3992 84.564C61.9139 83.668 61.6712 82.6133 61.6712 81.4V72.16C61.6712 70.928 61.9139 69.8733 62.3992 68.996C62.9032 68.1187 63.6032 67.4467 64.4992 66.98C65.4139 66.5133 66.4872 66.28 67.7192 66.28C68.9512 66.28 70.0152 66.5227 70.9112 67.008C71.8072 67.4747 72.4979 68.1467 72.9832 69.024C73.4685 69.9013 73.7112 70.9467 73.7112 72.16H71.1912C71.1912 71.0027 70.8832 70.116 70.2672 69.5C69.6699 68.8653 68.8205 68.548 67.7192 68.548C66.6179 68.548 65.7499 68.856 65.1152 69.472C64.4992 70.088 64.1912 70.9747 64.1912 72.132V81.4C64.1912 82.5573 64.4992 83.4533 65.1152 84.088C65.7499 84.704 66.6179 85.012 67.7192 85.012C68.8205 85.012 69.6699 84.704 70.2672 84.088C70.8832 83.4533 71.1912 82.5573 71.1912 81.4H73.7112C73.7112 82.5947 73.4685 83.64 72.9832 84.536C72.4979 85.4133 71.8072 86.0947 70.9112 86.58C70.0152 87.0467 68.9512 87.28 67.7192 87.28ZM79.0763 87V66.56H90.8363V68.856H81.5683V75.184H89.8563V77.452H81.5683V84.704H90.8363V87H79.0763ZM95.9213 87V66.56H102.501C103.771 66.56 104.872 66.812 105.805 67.316C106.739 67.8013 107.457 68.492 107.961 69.388C108.484 70.284 108.745 71.348 108.745 72.58C108.745 73.7933 108.484 74.8573 107.961 75.772C107.457 76.668 106.739 77.368 105.805 77.872C104.872 78.3573 103.771 78.6 102.501 78.6H98.4413V87H95.9213ZM98.4413 76.332H102.501C103.603 76.332 104.48 75.996 105.133 75.324C105.805 74.6333 106.141 73.7187 106.141 72.58C106.141 71.4227 105.805 70.508 105.133 69.836C104.48 69.164 103.603 68.828 102.501 68.828H98.4413V76.332ZM117.554 87V68.828H111.954V66.532H125.674V68.828H120.074V87H117.554ZM133.139 69.976C133.139 70.9093 132.981 71.5813 132.663 71.992C132.197 72.552 131.487 72.8787 130.535 72.972V71.292C130.871 71.292 131.142 71.152 131.347 70.872C131.459 70.7413 131.515 70.452 131.515 70.004V69.5H130.339V66.448H133.139V69.976ZM144.451 87.28C143.107 87.28 141.95 87.056 140.979 86.608C140.027 86.16 139.29 85.516 138.767 84.676C138.245 83.836 137.974 82.8373 137.955 81.68H140.475C140.475 82.7067 140.821 83.5187 141.511 84.116C142.221 84.7133 143.201 85.012 144.451 85.012C145.627 85.012 146.542 84.7227 147.195 84.144C147.867 83.5653 148.203 82.7627 148.203 81.736C148.203 80.9147 147.979 80.196 147.531 79.58C147.102 78.964 146.477 78.5347 145.655 78.292L142.883 77.424C141.483 76.9947 140.401 76.276 139.635 75.268C138.889 74.26 138.515 73.0747 138.515 71.712C138.515 70.6107 138.758 69.6587 139.243 68.856C139.747 68.0347 140.447 67.4 141.343 66.952C142.239 66.4853 143.294 66.252 144.507 66.252C146.299 66.252 147.737 66.756 148.819 67.764C149.902 68.7533 150.453 70.0787 150.471 71.74H147.951C147.951 70.732 147.643 69.948 147.027 69.388C146.43 68.8093 145.581 68.52 144.479 68.52C143.397 68.52 142.547 68.7813 141.931 69.304C141.334 69.8267 141.035 70.5547 141.035 71.488C141.035 72.328 141.259 73.056 141.707 73.672C142.155 74.288 142.799 74.7267 143.639 74.988L146.439 75.884C147.802 76.3133 148.857 77.0413 149.603 78.068C150.35 79.0947 150.723 80.2987 150.723 81.68C150.723 82.8 150.462 83.78 149.939 84.62C149.417 85.46 148.679 86.1133 147.727 86.58C146.794 87.0467 145.702 87.28 144.451 87.28Z" fill="black"/>
</svg>
